<svg width="101" height="24" viewBox="0 0 101 24" fill="none" xmlns="http://www.w3.org/2000/svg">
<path d="M9.24 4.44C9.24 4.44 8.98667 4.45333 8.48 4.48C8 4.48 7.42667 4.45333 6.76 4.4C6.12 4.34667 5.54667 4.21333 5.04 4C4.56 3.76 4.30667 3.4 4.28 2.92C4.25333 2.44 4.48 2.06667 4.96 1.8C5.44 1.50667 5.98667 1.29333 6.6 1.16C7.24 0.999999 7.8 0.906666 8.28 0.88C8.76 0.826665 9 0.799998 9 0.799998C9 0.799998 9.2 0.786665 9.6 0.759999C10 0.706666 10.5067 0.693333 11.12 0.719999C11.7333 0.746666 12.3467 0.866666 12.96 1.08C13.6 1.29333 14.1467 1.64 14.6 2.12C15.08 2.6 15.3733 3.28 15.48 4.16C15.5867 5.04 15.6933 6.09333 15.8 7.32C15.9067 8.52 16 9.76 16.08 11.04C16.1867 12.32 16.2667 13.5067 16.32 14.6C16.4 15.6933 16.4533 16.5867 16.48 17.28C16.5333 17.9733 16.56 18.32 16.56 18.32C16.56 18.32 16.56 18.52 16.56 18.92C16.5867 19.2933 16.5333 19.76 16.4 20.32C16.2667 20.88 15.9867 21.44 15.56 22C15.1333 22.56 14.48 23.04 13.6 23.44C12.7467 23.8133 11.6 24 10.16 24C7.76 24 5.89333 23.76 4.56 23.28C3.22667 22.7733 2.28 22.0533 1.72 21.12C1.16 20.1867 0.84 19.08 0.76 17.8C0.706667 16.9733 0.84 16.3333 1.16 15.88C1.48 15.4267 1.85333 15.1067 2.28 14.92C2.73333 14.7067 3.12 14.5867 3.44 14.56C3.78667 14.5067 3.96 14.48 3.96 14.48C3.96 14.48 4.10667 14.48 4.4 14.48C4.69333 14.48 5.04 14.56 5.44 14.72C5.84 14.8533 6.21333 15.1333 6.56 15.56C6.90667 15.96 7.13333 16.5733 7.24 17.4C7.37333 18.4933 7.6 19.2667 7.92 19.72C8.24 20.1733 8.53333 20.4533 8.8 20.56C9.09333 20.64 9.24 20.68 9.24 20.68C9.24 20.68 9.37333 20.68 9.64 20.68C9.90667 20.6533 10.16 20.4667 10.4 20.12C10.64 19.7733 10.72 19.12 10.64 18.16C10.56 17.2 10.44 15.9867 10.28 14.52C10.1467 13.0533 9.98667 11.4533 9.8 9.72C9.61333 7.98667 9.42667 6.22667 9.24 4.44ZM21.7847 7.16C21.7847 7.16 21.6114 7.16 21.2647 7.16C20.918 7.13333 20.5047 7.05333 20.0247 6.92C19.5714 6.76 19.158 6.48 18.7847 6.08C18.4114 5.68 18.2114 5.08 18.1847 4.28C18.158 3.48 18.278 2.89333 18.5447 2.52C18.8114 2.12 19.1447 1.85333 19.5447 1.72C19.9447 1.56 20.3314 1.48 20.7047 1.48C21.078 1.45333 21.3447 1.42667 21.5047 1.4C21.6647 1.37333 21.9314 1.4 22.3047 1.48C22.678 1.53333 23.0647 1.68 23.4647 1.92C23.8647 2.13333 24.198 2.46667 24.4647 2.92C24.7314 3.34667 24.838 3.92 24.7847 4.64C24.7314 5.33333 24.5447 5.86667 24.2247 6.24C23.9314 6.58667 23.5847 6.82667 23.1847 6.96C22.8114 7.06667 22.478 7.13333 22.1847 7.16C21.918 7.16 21.7847 7.16 21.7847 7.16ZM20.3847 21.52L19.4247 12.4C19.4247 12.4 19.358 12.2667 19.2247 12C19.118 11.7067 19.038 11.5067 18.9847 11.4C18.958 11.32 18.9047 11.16 18.8247 10.92C18.7714 10.6533 18.838 10.3733 19.0247 10.08C19.238 9.78667 19.6914 9.57333 20.3847 9.44C21.1047 9.30667 21.8514 9.26667 22.6247 9.32C23.398 9.37333 24.078 9.61333 24.6647 10.04C25.278 10.44 25.6514 11.1467 25.7847 12.16C25.8914 12.9067 25.998 13.8 26.1047 14.84C26.2114 15.8533 26.3047 16.8533 26.3847 17.84C26.4914 18.8 26.5714 19.6133 26.6247 20.28C26.7047 20.92 26.7447 21.24 26.7447 21.24C26.7447 21.24 26.758 21.3867 26.7847 21.68C26.8114 21.9467 26.7714 22.2667 26.6647 22.64C26.558 22.9867 26.2914 23.3067 25.8647 23.6C25.4647 23.8667 24.8114 24 23.9047 24C22.998 24 22.3047 23.88 21.8247 23.64C21.3447 23.3733 20.998 23.08 20.7847 22.76C20.598 22.44 20.478 22.16 20.4247 21.92C20.398 21.6533 20.3847 21.52 20.3847 21.52ZM28.9278 10.16C28.9278 10.16 28.9278 10.04 28.9278 9.8C28.9545 9.56 29.0478 9.29333 29.2078 9C29.3678 8.68 29.6611 8.4 30.0878 8.16C30.5411 7.92 31.1811 7.8 32.0078 7.8C33.0211 7.8 33.7411 7.94667 34.1678 8.24C34.6211 8.50667 34.8878 8.84 34.9678 9.24C35.0745 9.61333 35.1011 9.98667 35.0478 10.36C34.9945 10.7067 34.9678 10.9467 34.9678 11.08C34.9678 11.1867 34.9678 11.5867 34.9678 12.28C34.9945 12.9467 35.0478 13.7467 35.1278 14.68C35.2078 15.6133 35.3411 16.5333 35.5278 17.44C35.7145 18.3467 35.9811 19.1067 36.3278 19.72C36.6745 20.3067 37.1278 20.5867 37.6878 20.56C38.2478 20.5333 38.6211 20.24 38.8078 19.68C38.9945 19.12 39.0611 18.4267 39.0078 17.6C38.9811 16.7733 38.8878 15.9467 38.7278 15.12C38.5678 14.2933 38.4078 13.5867 38.2478 13C38.0878 12.3867 38.0078 12.04 38.0078 11.96C38.0078 11.8533 37.9678 11.6667 37.8878 11.4C37.8345 11.1067 37.8345 10.7867 37.8878 10.44C37.9678 10.0933 38.1945 9.77333 38.5678 9.48C38.9411 9.18667 39.5545 9 40.4078 8.92C41.2611 8.84 41.9278 8.89333 42.4078 9.08C42.9145 9.24 43.2745 9.45333 43.4878 9.72C43.7278 9.98667 43.8745 10.24 43.9278 10.48C43.9811 10.6933 44.0078 10.8 44.0078 10.8C44.0078 10.8 44.1011 11.12 44.2878 11.76C44.4745 12.4 44.6478 13.2267 44.8078 14.24C44.9678 15.2267 45.0211 16.28 44.9678 17.4C44.9411 18.52 44.7011 19.5867 44.2478 20.6C43.8211 21.5867 43.1011 22.4 42.0878 23.04C41.1011 23.68 39.7145 24 37.9278 24C36.1411 24 34.6745 23.6667 33.5278 23C32.3811 22.3333 31.4745 21.48 30.8078 20.44C30.1678 19.3733 29.7011 18.2533 29.4078 17.08C29.1145 15.9067 28.9411 14.8 28.8878 13.76C28.8345 12.6933 28.8211 11.8267 28.8478 11.16C28.9011 10.4933 28.9278 10.16 28.9278 10.16ZM50.5803 4.72C50.5803 4.72 50.3936 4.70667 50.0203 4.68C49.647 4.65333 49.207 4.58667 48.7003 4.48C48.1936 4.34667 47.7536 4.13333 47.3803 3.84C47.007 3.54667 46.8203 3.12 46.8203 2.56C46.8203 2 46.9936 1.6 47.3403 1.36C47.687 1.09333 48.0736 0.933332 48.5003 0.88C48.9536 0.799999 49.3536 0.773332 49.7003 0.799998C50.047 0.799998 50.2203 0.799998 50.2203 0.799998L59.7803 0.919999C59.7803 0.919999 59.9936 0.933332 60.4203 0.959999C60.847 0.986665 61.3003 1.09333 61.7803 1.28C62.287 1.46667 62.6603 1.77333 62.9003 2.2C63.167 2.62667 63.1136 3.24 62.7403 4.04C62.5003 4.57333 62.127 5.33333 61.6203 6.32C61.1136 7.30667 60.527 8.41333 59.8603 9.64C59.2203 10.84 58.567 12.0533 57.9003 13.28C57.2336 14.48 56.607 15.6 56.0203 16.64C55.4603 17.68 55.007 18.52 54.6603 19.16C54.3136 19.7733 54.1403 20.08 54.1403 20.08L60.0203 20.04C60.0203 20.04 60.167 20.04 60.4603 20.04C60.7536 20.04 61.1003 20.0933 61.5003 20.2C61.9003 20.3067 62.247 20.4933 62.5403 20.76C62.8336 21 62.9803 21.3867 62.9803 21.92C62.9803 22.4267 62.8336 22.8267 62.5403 23.12C62.247 23.4133 61.9003 23.6267 61.5003 23.76C61.1003 23.8667 60.7536 23.9333 60.4603 23.96C60.167 23.9867 60.0203 24 60.0203 24H51.3003C51.3003 24 51.1136 24 50.7403 24C50.3936 23.9733 49.967 23.92 49.4603 23.84C48.9536 23.76 48.4736 23.6133 48.0203 23.4C47.567 23.16 47.2603 22.8267 47.1003 22.4C46.887 21.8133 46.8336 21.2533 46.9403 20.72C47.0736 20.1867 47.2336 19.7467 47.4203 19.4C47.6336 19.0533 47.7403 18.88 47.7403 18.88L55.4203 4.84L50.5803 4.72ZM68.3863 7.16C68.3863 7.16 68.2129 7.16 67.8663 7.16C67.5196 7.13333 67.1063 7.05333 66.6263 6.92C66.1729 6.76 65.7596 6.48 65.3863 6.08C65.0129 5.68 64.8129 5.08 64.7863 4.28C64.7596 3.48 64.8796 2.89333 65.1463 2.52C65.4129 2.12 65.7463 1.85333 66.1463 1.72C66.5463 1.56 66.9329 1.48 67.3063 1.48C67.6796 1.45333 67.9463 1.42667 68.1063 1.4C68.2663 1.37333 68.5329 1.4 68.9062 1.48C69.2796 1.53333 69.6663 1.68 70.0663 1.92C70.4663 2.13333 70.7996 2.46667 71.0663 2.92C71.3329 3.34667 71.4396 3.92 71.3863 4.64C71.3329 5.33333 71.1463 5.86667 70.8263 6.24C70.5329 6.58667 70.1863 6.82667 69.7862 6.96C69.4129 7.06667 69.0796 7.13333 68.7863 7.16C68.5196 7.16 68.3863 7.16 68.3863 7.16ZM66.9863 21.52L66.0263 12.4C66.0263 12.4 65.9596 12.2667 65.8263 12C65.7196 11.7067 65.6396 11.5067 65.5863 11.4C65.5596 11.32 65.5063 11.16 65.4263 10.92C65.3729 10.6533 65.4396 10.3733 65.6263 10.08C65.8396 9.78667 66.2929 9.57333 66.9863 9.44C67.7063 9.30667 68.4529 9.26667 69.2263 9.32C69.9996 9.37333 70.6796 9.61333 71.2663 10.04C71.8796 10.44 72.2529 11.1467 72.3863 12.16C72.4929 12.9067 72.5996 13.8 72.7063 14.84C72.8129 15.8533 72.9063 16.8533 72.9863 17.84C73.0929 18.8 73.1729 19.6133 73.2263 20.28C73.3063 20.92 73.3463 21.24 73.3463 21.24C73.3463 21.24 73.3596 21.3867 73.3863 21.68C73.4129 21.9467 73.3729 22.2667 73.2663 22.64C73.1596 22.9867 72.8929 23.3067 72.4663 23.6C72.0663 23.8667 71.4129 24 70.5063 24C69.5996 24 68.9063 23.88 68.4263 23.64C67.9463 23.3733 67.5996 23.08 67.3863 22.76C67.1996 22.44 67.0796 22.16 67.0263 21.92C66.9996 21.6533 66.9863 21.52 66.9863 21.52ZM75.5294 10.16C75.5294 10.16 75.5294 10.04 75.5294 9.8C75.556 9.56 75.6494 9.29333 75.8094 9C75.9694 8.68 76.2627 8.4 76.6894 8.16C77.1427 7.92 77.7827 7.8 78.6094 7.8C79.6227 7.8 80.3427 7.94667 80.7694 8.24C81.2227 8.50667 81.4894 8.84 81.5694 9.24C81.676 9.61333 81.7027 9.98667 81.6494 10.36C81.596 10.7067 81.5694 10.9467 81.5694 11.08C81.5694 11.1867 81.5694 11.5867 81.5694 12.28C81.596 12.9467 81.6494 13.7467 81.7294 14.68C81.8094 15.6133 81.9427 16.5333 82.1294 17.44C82.316 18.3467 82.5827 19.1067 82.9294 19.72C83.276 20.3067 83.7294 20.5867 84.2894 20.56C84.8494 20.5333 85.2227 20.24 85.4094 19.68C85.596 19.12 85.6627 18.4267 85.6094 17.6C85.5827 16.7733 85.4894 15.9467 85.3294 15.12C85.1694 14.2933 85.0094 13.5867 84.8494 13C84.6894 12.3867 84.6094 12.04 84.6094 11.96C84.6094 11.8533 84.5694 11.6667 84.4894 11.4C84.436 11.1067 84.436 10.7867 84.4894 10.44C84.5694 10.0933 84.796 9.77333 85.1694 9.48C85.5427 9.18667 86.156 9 87.0094 8.92C87.8627 8.84 88.5294 8.89333 89.0094 9.08C89.516 9.24 89.876 9.45333 90.0894 9.72C90.3294 9.98667 90.476 10.24 90.5294 10.48C90.5827 10.6933 90.6094 10.8 90.6094 10.8C90.6094 10.8 90.7027 11.12 90.8894 11.76C91.076 12.4 91.2494 13.2267 91.4094 14.24C91.5694 15.2267 91.6227 16.28 91.5694 17.4C91.5427 18.52 91.3027 19.5867 90.8494 20.6C90.4227 21.5867 89.7027 22.4 88.6894 23.04C87.7027 23.68 86.316 24 84.5294 24C82.7427 24 81.276 23.6667 80.1294 23C78.9827 22.3333 78.076 21.48 77.4094 20.44C76.7694 19.3733 76.3027 18.2533 76.0094 17.08C75.716 15.9067 75.5427 14.8 75.4894 13.76C75.436 12.6933 75.4227 11.8267 75.4494 11.16C75.5027 10.4933 75.5294 10.16 75.5294 10.16ZM96.8219 24C96.0752 24 95.3419 23.88 94.6219 23.64C93.9285 23.4 93.5419 22.96 93.4619 22.32C93.3819 21.9733 93.3152 21.64 93.2619 21.32C93.2085 21 93.3152 20.7067 93.5819 20.44C93.9552 20.04 94.5019 19.7733 95.2219 19.64C95.9419 19.5067 96.6752 19.4933 97.4219 19.6C98.1685 19.7067 98.7685 19.9067 99.2219 20.2C99.5419 20.4133 99.7552 20.6933 99.8619 21.04C99.9685 21.36 100.035 21.6933 100.062 22.04C100.142 22.52 100.009 22.9067 99.6619 23.2C99.3152 23.4933 98.8752 23.7067 98.3419 23.84C97.8085 23.9467 97.3019 24 96.8219 24Z" fill="url(#paint0_linear_4_448)"/>
<defs>
<linearGradient id="paint0_linear_4_448" x1="101" y1="12" x2="0" y2="12" gradientUnits="userSpaceOnUse">
<stop stop-color="#4252AC"/>
<stop offset="1" stop-color="#384695"/>
</linearGradient>
</defs>
</svg>
